#!OML:ASF H:\Dans Jumps\Project 1\Capture day 1\Session 1\subject.ASF
:FULLY-SPECIFIED
:DEGREES
370
root 0.328053 20.7215 -7.1712 8.72022 3.51138 -0.397161
lowerback 7.32114 -0.36039 -2.07853
upperback 5.06037 -0.592044 1.8698
thorax 1.16714 -0.37384 3.133
lowerneck -12.088 -0.675391 -2.62422
upperneck 26.9125 -0.691481 1.32875
head 10.6372 -0.417582 0.84023
rclavicle 1.36167e-014 -2.22639e-014
rhumerus -23.5959 -13.5163 -81.9043
rradius 24.5491
rwrist 32.7232
rhand -19.2014 -26.3529
rfingers 7.12502
rthumb 7.11075 -56.2135
lclavicle 1.36167e-014 -2.22639e-014
lhumerus -18.1424 -3.13025 87.6639
lradius 19.7688
lwrist 15.6824
lhand -25.3689 -6.21796
lfingers 7.12502
lthumb 1.15524 23.7587
rfemur -30.7233 -5.04126 19.0144
rtibia 28.4305
rfoot 19.2205 -4.48407
rtoes 19.5174
lfemur -32.212 6.70287 -18.6476
ltibia 25.3159
lfoot 20.075 -3.75106
ltoes 0.260005
371
root 0.33116 20.5818 -7.0394 8.77375 3.44883 -0.46567
lowerback 7.01162 -0.317071 -1.96489
upperback 5.05031 -0.524775 1.84584
thorax 1.32101 -0.3391 3.03697
lowerneck -11.9897 -0.707491 -2.6196
upperneck 27.03 -0.742894 1.33722
head 10.6627 -0.44006 0.836805
rclavicle 4.27387e-015 1.49089e-014
rhumerus -23.8027 -13.748 -81.9272
rradius 24.2308
rwrist 32.939
rhand -19.3043 -26.4638
rfingers 7.12502
rthumb 7.01139 -56.3276
lclavicle 4.27387e-015 1.49089e-014
lhumerus -18.4979 -2.52027 87.6703
lradius 19.1017
lwrist 14.8389
lhand -25.1764 -6.2644
lfingers 7.12502
lthumb 1.34117 23.7111
rfemur -30.8404 -5.11185 19.1074
rtibia 27.0507
rfoot 19.3689 -4.54301
rtoes 19.2231
lfemur -32.1734 6.75377 -18.6505
ltibia 23.9119
lfoot 20.0909 -3.64719
ltoes -1.03502
372
root 0.33507 20.428 -6.90088 8.77546 3.37971 -0.523659
lowerback 6.62729 -0.27726 -1.85727
upperback 5.0455 -0.46239 1.82111
thorax 1.52269 -0.307475 2.94388
lowerneck -11.8716 -0.73592 -2.63872
upperneck 27.216 -0.7849 1.34744
head 10.7098 -0.460775 0.839685
rclavicle -3.27995e-015 -6.36111e-015
rhumerus -24.0013 -13.9816 -81.931
rradius 23.8622
rwrist 33.2533
rhand -19.3904 -26.5576
rfingers 7.12502
rthumb 6.92829 -56.4243
lclavicle -3.27995e-015 -6.36111e-015
lhumerus -18.844 -1.75304 87.6352
lradius 18.3591
lwrist 13.8074
lhand -24.9259 -6.23908
lfingers 7.12502
lthumb 1.58311 23.7348
rfemur -30.8537 -5.11401 19.1469
rtibia 25.8393
rfoot 19.398 -4.60939
rtoes 18.8899
lfemur -32.0147 6.78395 -18.6435
ltibia 22.6749
lfoot 20.0476 -3.47868
ltoes -2.16739
373
root 0.33951 20.2599 -6.75661 8.70521 3.30194 -0.564384
lowerback 6.20478 -0.240307 -1.76495
upperback 5.04432 -0.404897 1.79304
thorax 1.75044 -0.278804 2.85679
lowerneck -11.7516 -0.757848 -2.67237
upperneck 27.4869 -0.814259 1.35554
head 10.7882 -0.477845 0.846386
rclavicle -7.45443e-015 -4.57205e-015
rhumerus -24.1983 -14.212 -81.9142
rradius 23.4517
rwrist 33.6572
rhand -19.4561 -26.623
rfingers 7.12502
rthumb 6.86489 -56.4917
lclavicle -7.45443e-015 -4.57205e-015
lhumerus -19.1857 -0.82233 87.5465
lradius 17.5484
lwrist 12.6128
lhand -24.6244 -6.17286
lfingers 7.12502
lthumb 1.87428 23.7987
rfemur -30.7468 -5.03444 19.1217
rtibia 24.8243
rfoot 19.2513 -4.70878
rtoes 18.5185
lfemur -31.728 6.79716 -18.6339
ltibia 21.6411
lfoot 19.9509 -3.27544
ltoes -3.10739
